<svg width="243" height="164" fill="none" xmlns="http://www.w3.org/2000/svg"><g filter="url(#a)" stroke="#000" stroke-linecap="round"><path d="M56.631 118.361c2.657-10.92-1.598-20.897-4.197-31.895-.56-2.37-.584-4.567-1.045-6.936-.424-2.175 6.846-6.058 9.637-6.492 3.042-.472 6.606 1.934 9.502 2.697 4.814 1.27 12.324 2.303 16.358 4.574 5.39 3.035 10.493 7.24 13.245 12.096 1.594 2.813 1.081 9.622 5.224 10.91 5.934 1.845 12.864.668 18.747.346 5.245-.287 10.634.187 15.566-1.327 3.264-1.002 8.654-2.534 12.165-2.94 5.735-.662 13.439-2.3 14.489 5.061.437 3.061 12.03 5.18 14.908 7.998 1.89 1.851 14.537 8.664 14.591 9.841.212 4.597 6.722.497 9.819.005 7.409-1.177 9.865-3.627 11.062-9.785.98-5.044-.107-10.487.875-15.54.964-4.959 1.982-9.726 2.78-14.727.572-3.58 1.152-7.722 1.304-11.376.129-3.107.883-10.212-.643-13.25-1.345-2.677-8.321-5.542-11.044-3.677-2.463 1.687-4.151 6.574-7.404 7.096-1.977.317-1.989 2.31-4.157 2.286-4.29-.047-8.9-.778-13.393-.937-3.364-.12-7.692 1.676-10.592-.699-1.464-1.199-1.16-4.117-2.981-4.83-3.297-1.29-6.144-.351-9.021-3.045-2.043-1.914-2.519-4.49-2.969-6.8-.705-3.617-4.624-5.967-7.263-8.485-.857-.817-2.844 1.706-3.668-.237a14.567 14.567 0 00-4.949-6.164c-3.743-2.68-8.691-4.148-12.469-6.538-2.29-1.45-4.764-2.627-7.554-3.169-4.33-.842-6.349 5.499-11.32 4.532-5.002-.972-8.268-5.584-13.436-3.257-4.266 1.92-8.955 1.256-13.493 2.341-8.786 2.102-15.878 5.005-24.03 8.149-6.295 2.428-11.656 2.018-15.908 6.7-1.383 1.523-.87 3.762-2.203 5.387-2.169 2.647-7.392 1.847-9.727 4.196-3.45 3.467-6.975 7.01-10.23 10.593-2.943 3.242-2.298.622-3.788 1.235-4.684 1.93-9.25 10.608-10.708 14.547-1.058 2.858 2.083 7.73 3.487 10.505 2.305 4.556 5.14 7.729 4.16 12.777-.49 2.515-3.945 7.614-1.962 10.092.931 1.165 3.006.751 3.61 2.232.728 1.789-.395 4.776-.891 6.491-3.914 13.527 14.451.177 22.794 5.213 3.247 1.961 7.956 3.134 11.482 2.062 2.84-.863 4.932-2.545 4.418-5.534-.131-.76-.183-5.278.107-2.461" stroke-width="8"/><path d="M143.123 32.426l-.214.044" stroke-width="11"/><path d="M70.486 110.086c.835 7.675-.94 13.963-4.06 20.89M204.471 42.94c.094-.24.3-.44.527-.6 1.659-1.16 3.861-2.02 5.859-2.726 1.386-.489 3.29-.39 4.813-.355 3.489.078 6.65 1.253 9.619 2.878 2.489 1.363 4.123 3.291 5.44 5.456.479.787.641 1.636 1.103 2.42.264.448 1.575 2.273.554 2.074M234.862 66.165c-.113.112-.164.121-.309.168M29.543 35.96c-.392-1.064 3.821-4.186 4.265-4.575 3.148-2.758 6.27-4.59 10.512-6.022a45.316 45.316 0 017.012-1.76M62.123 20.189c-.069.245-.039.148-.211.114M73.833 16.052c-.28-.055.398-.085.421-.09 4.503-.796 9.17-1.198 13.735-1.768" stroke-width="7"/></g><defs><filter id="a" x="-4" y="0" width="247.564" height="171.42" filterUnits="userSpaceOnUse" color-interpolation-filters="sRGB"><feFlood flood-opacity="0" result="BackgroundImageFix"/><feColorMatrix in="SourceAlpha" values="0 0 0 0 0 0 0 0 0 0 0 0 0 0 0 0 0 0 127 0" result="hardAlpha"/><feOffset dy="4"/><feGaussianBlur stdDeviation="2"/><feComposite in2="hardAlpha" operator="out"/><feColorMatrix values="0 0 0 0 0 0 0 0 0 0 0 0 0 0 0 0 0 0 0.25 0"/><feBlend in2="BackgroundImageFix" result="effect1_dropShadow_385_5155"/><feBlend in="SourceGraphic" in2="effect1_dropShadow_385_5155" result="shape"/></filter></defs></svg>