<svg width="171" height="228" fill="none" xmlns="http://www.w3.org/2000/svg"><g filter="url(#a)" stroke="#000" stroke-linecap="round"><path d="M60.04 39.047c1.528.14-2.954-5.916-3.353-6.41-2.085-2.584-4.435-5.458-6.275-8.34-2.827-4.427-9.28-12.521-8.048-18.143.973-4.434 3.615.093 5.644.658 1.81.504 6.423.355 7.329 1.478 1.522 1.886 3.545 2.797 4.673 5.087 1.032 2.096 1.607 5.511 3.92 6.76 4.19 2.26 10.246 4.46 13.228 8.155 2.228 2.761 5.701 8.794 9.19 9.56 4.603 1.009 12.36.675 16.042 3.388 1.977 1.456 4.561 1.429 5.564 4.25.599 1.685 3.306 4.207 4.947 4.567 11.4 2.5 15.931 6.242 20.893 16.317 1.11 2.254.551 4.232 2.828 6.165 1.829 1.553 4.014 2.744 6.02 4.222 4.317 3.181 4.554 9.234 2.187 13.634-2.117 3.936-7.01 5.721-8.048 10.454-1.072 4.89-2.888 10.586-4.443 14.985-1.773 5.014-9.516 5.493-13.914 6.556-5.795 1.402-14.039 5.45-18.057 9.905-3.741 4.148-5.316 8.535-10.867 11.287-7.651 3.792-16.424 6.606-21.894 14.059-6.019 8.202-17.37 15.934-20.18 26.043-.694 2.496-.614 5.961-2.709 7.659-1.476 1.198-3.588 5.218-4.004 7.118-.526 2.396-5.958-8.51-6.86-9.629-2.152-2.667 3.343-10.645.274-14.448-3.926-4.866 1.987-10.062 3.433-14.336.963-2.848 7.83-10.698 10.672-11.716 3.482-1.248 10.373-7.712 11.11-11.073 1.036-4.726-1.042-10.079 2.49-13.995 4.056-4.498 9.781-10.294 11.118-16.39 1.17-5.337-.147-9.797-2.758-14.404-2.27-4.004-6.64-5.524-9.102-9.379-2.734-4.281-5.062-8.872-5.374-13.913-.115-1.862.1-5.29-.438-7.092-.832-2.786 1.81-6.258 1.727-9.197" stroke-width="7"/><path d="M58.661 46.03c.01-.049-.121.007-.167.018" stroke-width="9"/><path d="M44.14 208.98c.099.035.1.143.125.028M51.861 203.501c-.29.82.994-1.434 1.41-2.198.95-1.748 1.523-3.686 2.49-5.439 1.354-2.457 1.806-5.105 2.606-7.76M35.495 206.172c-.553-.121-.985-.495-1.5-.727-1.98-.893-3.954-2.076-5.503-3.613-1.292-1.28-2.468-2.663-3.686-4.01-.969-1.073-2.54-2.716-2.793-4.177-.373-2.16.204-4.4.695-6.477.995-4.207.715-7.937-2.166-11.532M21.787 166.389c.015-.154-.081-.222-.042-.401M149.361 106.569c-2.621-.928 3.872-13.643 4.804-15.206 2.193-3.677 5.467-6.607 5.075-11.211-.169-1.979-2.905-7.415-5.558-5.716" stroke-width="7"/></g><defs><filter id="a" x="-4" y=".722" width="178.213" height="234.566" filterUnits="userSpaceOnUse" color-interpolation-filters="sRGB"><feFlood flood-opacity="0" result="BackgroundImageFix"/><feColorMatrix in="SourceAlpha" values="0 0 0 0 0 0 0 0 0 0 0 0 0 0 0 0 0 0 127 0" result="hardAlpha"/><feOffset dy="4"/><feGaussianBlur stdDeviation="2"/><feComposite in2="hardAlpha" operator="out"/><feColorMatrix values="0 0 0 0 0 0 0 0 0 0 0 0 0 0 0 0 0 0 0.25 0"/><feBlend in2="BackgroundImageFix" result="effect1_dropShadow_371_6645"/><feBlend in="SourceGraphic" in2="effect1_dropShadow_371_6645" result="shape"/></filter></defs></svg>