<svg width="25" height="25" fill="none" xmlns="http://www.w3.org/2000/svg"><path d="M25 12.5C25 5.596 19.404 0 12.5 0S0 5.596 0 12.5 5.596 25 12.5 25 25 19.404 25 12.5z" fill="#555"/><path d="M18.77 8.218c-1.147-.918-2.523-1.376-3.976-1.453l-.23.23c1.3.305 2.447.917 3.517 1.758a11.638 11.638 0 00-4.281-1.3c-.459-.076-.841-.076-1.3-.076-.458 0-.84 0-1.3.076a11.638 11.638 0 00-4.28 1.3c1.07-.841 2.216-1.453 3.516-1.758l-.23-.23c-1.452.077-2.828.535-3.975 1.453-1.3 2.446-1.988 5.198-2.064 8.027 1.147 1.223 2.752 1.988 4.434 1.988 0 0 .535-.612.918-1.147-.994-.23-1.912-.764-2.523-1.605.535.306 1.07.611 1.605.84.688.306 1.376.46 2.064.612.612.077 1.224.153 1.835.153.612 0 1.224-.076 1.835-.153.688-.153 1.376-.305 2.064-.611.536-.23 1.07-.535 1.606-.841-.612.84-1.53 1.376-2.523 1.605.382.535.917 1.147.917 1.147 1.682 0 3.288-.765 4.435-1.988-.077-2.829-.765-5.58-2.065-8.027zm-8.793 6.651c-.764 0-1.452-.688-1.452-1.529 0-.84.688-1.529 1.452-1.529.765 0 1.453.688 1.453 1.53 0 .84-.688 1.528-1.453 1.528zm5.046 0c-.764 0-1.452-.688-1.452-1.529 0-.84.688-1.529 1.452-1.529.765 0 1.453.688 1.453 1.53 0 .84-.688 1.528-1.453 1.528z" fill="#fff"/></svg>