<svg width="15" height="15" fill="none" xmlns="http://www.w3.org/2000/svg"><path d="M6.736.58a.793.793 0 011.528 0l1.22 3.926a.839.839 0 00.292.42.78.78 0 00.471.16h3.948c.779 0 1.101 1.041.473 1.52l-3.194 2.426a.84.84 0 00-.292.42.877.877 0 000 .519l1.22 3.925c.24.775-.607 1.418-1.236.94L7.972 12.41a.78.78 0 00-.944 0l-3.194 2.425c-.629.48-1.476-.165-1.235-.939l1.219-3.925a.876.876 0 000-.52.84.84 0 00-.292-.42L.333 6.607c-.63-.479-.306-1.52.472-1.52h3.947a.78.78 0 00.472-.16.84.84 0 00.292-.42L6.736.58z" fill="#F7A530"/></svg>