<svg width="33" height="32" fill="none" xmlns="http://www.w3.org/2000/svg"><path d="M14.988 2.57c.482-1.495 2.576-1.495 3.056 0l2.44 7.59c.105.326.31.61.583.81.275.202.605.31.944.31h7.896c1.556 0 2.202 2.014.944 2.94l-6.387 4.69a1.64 1.64 0 00-.583 1.816l2.438 7.59c.482 1.497-1.213 2.74-2.47 1.815l-6.388-4.69a1.595 1.595 0 00-1.89 0l-6.387 4.69c-1.258.925-2.953-.32-2.47-1.816l2.438-7.59a1.64 1.64 0 000-1.003 1.623 1.623 0 00-.583-.812L2.18 14.22c-1.26-.926-.61-2.94.945-2.94h7.894c.34.001.67-.107.944-.309.274-.2.479-.485.584-.81l2.44-7.59z" fill="#fff" stroke="#000" stroke-width="2" stroke-linecap="round" stroke-linejoin="round"/></svg>