<svg width="27" height="26" fill="none" xmlns="http://www.w3.org/2000/svg"><path d="M12.755 1.121c.347-1.069 1.86-1.069 2.207 0l2.283 7.027c.155.478.6.802 1.103.802h7.389c1.124 0 1.591 1.438.682 2.099l-5.978 4.343a1.16 1.16 0 00-.421 1.297l2.283 7.026c.347 1.07-.876 1.958-1.786 1.298L14.54 20.67a1.16 1.16 0 00-1.364 0L7.2 25.013c-.91.66-2.133-.229-1.785-1.298l2.283-7.026a1.16 1.16 0 00-.422-1.297l-5.977-4.343c-.91-.66-.442-2.1.682-2.1h7.388a1.16 1.16 0 001.104-.801l2.283-7.027z" fill="#C86610"/></svg>