<svg width="21" height="21" fill="none" xmlns="http://www.w3.org/2000/svg"><g clip-path="url(#a)"><path d="M10.168 20.462c5.534 0 10.02-4.486 10.02-10.02C20.189 4.906 15.703.42 10.169.42 4.633.42.147 4.907.147 10.441c0 5.535 4.486 10.021 10.02 10.021z" fill="#C81010"/><path fill-rule="evenodd" clip-rule="evenodd" d="M6.293 6.596a.74.74 0 011.046 0l3.177 3.177 3.177-3.177a.741.741 0 011.213.807.74.74 0 01-.166.24l-3.177 3.177 3.177 3.177a.74.74 0 01-1.047 1.046l-3.177-3.177-3.177 3.177a.74.74 0 01-1.046-1.046L9.47 10.82 6.293 7.643a.74.74 0 010-1.047z" fill="#fff"/></g><defs><clipPath id="a"><path fill="#fff" transform="translate(.147 .42)" d="M0 0H20.042V20.042H0z"/></clipPath></defs></svg>