<svg width="32" height="32" fill="none" xmlns="http://www.w3.org/2000/svg"><path d="M4.363 31.28a3.278 3.278 0 01-2.405-1 3.278 3.278 0 01-1-2.404V4.046c0-.937.334-1.738 1-2.405.667-.666 1.468-1 2.405-1h23.83c.936 0 1.737.334 2.404 1 .666.667 1 1.468 1 2.405v23.83c0 .936-.334 1.737-1 2.404-.667.667-1.468 1-2.405 1H4.363zM16.278 5.748c-2.156 0-4.057.752-5.703 2.255-1.645 1.504-2.468 3.546-2.468 6.128 0 2.07.809 4.113 2.426 6.128 1.617 2.014 3.149 3.66 4.596 4.936a1.81 1.81 0 001.149.425 1.81 1.81 0 001.149-.426c1.446-1.276 2.978-2.921 4.595-4.935 1.617-2.015 2.426-4.057 2.426-6.128 0-2.582-.823-4.624-2.468-6.128-1.646-1.503-3.546-2.255-5.703-2.255zm0 10.638c-.596 0-1.1-.206-1.511-.617a2.054 2.054 0 01-.617-1.51c0-.596.205-1.1.617-1.511a2.055 2.055 0 011.51-.617c.596 0 1.1.205 1.511.617.412.411.617.915.617 1.51 0 .596-.206 1.1-.617 1.511a2.054 2.054 0 01-1.51.617z" fill="#fff"/></svg>