<svg width="30" height="30" fill="none" xmlns="http://www.w3.org/2000/svg"><path d="M6.629 14.849l-3.347-1.44c-.48-.192-.762-.54-.845-1.043a1.408 1.408 0 01.413-1.296l4.535-4.535a2.883 2.883 0 011.187-.72 2.779 2.779 0 011.404-.072l1.872.396c-1.272 1.512-2.286 2.886-3.04 4.122-.757 1.235-1.483 2.764-2.18 4.588zM27.792.812c.192 0 .384.048.576.144.192.096.36.216.504.36.143.144.264.312.36.504.095.192.143.384.143.576.096 2.232-.377 4.547-1.42 6.946a20.766 20.766 0 01-4.41 6.443c-1.296 1.296-2.544 2.333-3.743 3.112-1.2.78-2.616 1.519-4.247 2.215-.312.12-.63.18-.953.18-.325 0-.607-.12-.847-.36l-4.499-4.5c-.24-.24-.36-.521-.36-.846 0-.323.06-.641.18-.953.696-1.607 1.434-3.017 2.214-4.23.78-1.21 1.817-2.464 3.113-3.76a20.766 20.766 0 016.443-4.41C23.245 1.19 25.56.716 27.791.813zM18.65 11.538c.552.552 1.23.828 2.034.828.803 0 1.481-.276 2.033-.828.552-.552.828-1.23.828-2.034 0-.804-.276-1.481-.828-2.033-.552-.552-1.23-.828-2.033-.828-.804 0-1.482.276-2.034.828-.552.552-.828 1.23-.828 2.033 0 .804.276 1.482.828 2.034zm-3.311 12.02c1.823-.695 3.359-1.42 4.607-2.176 1.247-.756 2.627-1.77 4.139-3.042l.36 1.872c.096.48.072.954-.072 1.422-.144.468-.384.87-.72 1.205l-4.535 4.535c-.36.36-.792.492-1.296.396-.504-.096-.852-.384-1.044-.864l-1.44-3.347zM3.642 20.465c.84-.84 1.86-1.266 3.059-1.279 1.2-.011 2.22.403 3.06 1.243.839.84 1.259 1.86 1.259 3.059 0 1.2-.42 2.22-1.26 3.06-.6.6-1.601 1.115-3.004 1.547-1.405.432-3.342.816-5.814 1.152.336-2.472.72-4.403 1.152-5.795.432-1.392.948-2.387 1.548-2.987z" fill="#fff"/></svg>