<svg width="18" height="18" fill="none" xmlns="http://www.w3.org/2000/svg"><path d="M16.572 16.513l-5.108-5.15zM13.167 7.07c0 .789-.155 1.57-.454 2.3-.3.729-.738 1.391-1.292 1.95-.553.557-1.21 1-1.933 1.302a5.917 5.917 0 01-6.495-1.303A6.012 6.012 0 011.7 9.37 6.053 6.053 0 012.993 2.82a5.935 5.935 0 014.214-1.76c1.58 0 3.096.633 4.214 1.76a6.035 6.035 0 011.746 4.25z" fill="#fff"/><path d="M16.572 16.513l-5.108-5.15m1.703-4.293c0 .789-.155 1.57-.454 2.3-.3.729-.738 1.391-1.292 1.95-.553.557-1.21 1-1.933 1.302a5.917 5.917 0 01-6.495-1.303A6.012 6.012 0 011.7 9.37 6.053 6.053 0 012.993 2.82a5.935 5.935 0 014.214-1.76c1.58 0 3.096.633 4.214 1.76a6.035 6.035 0 011.746 4.25z" stroke="#000" stroke-linecap="round" stroke-linejoin="round"/></svg>