<svg width="40" height="40" fill="none" xmlns="http://www.w3.org/2000/svg"><path d="M20.004 9.745A10.238 10.238 0 009.751 20a10.238 10.238 0 0010.253 10.255A10.238 10.238 0 0030.258 20 10.238 10.238 0 0020.004 9.745zm0 16.922c-3.667 0-6.665-2.99-6.665-6.667a6.673 6.673 0 016.665-6.667A6.673 6.673 0 0126.67 20c0 3.677-2.998 6.667-6.666 6.667zM33.07 9.325c0 1.33-1.071 2.392-2.392 2.392a2.386 2.386 0 01-2.391-2.392 2.392 2.392 0 114.783 0zm6.79 2.428c-.151-3.205-.883-6.043-3.23-8.381C34.291 1.033 31.453.302 28.25.14c-3.3-.188-13.197-.188-16.499 0-3.194.151-6.032.883-8.38 3.222C1.025 5.7.302 8.54.14 11.743c-.187 3.303-.187 13.202 0 16.504.152 3.205.884 6.043 3.23 8.381 2.348 2.339 5.177 3.07 8.38 3.231 3.302.188 13.198.188 16.5 0 3.203-.151 6.041-.883 8.38-3.23 2.337-2.34 3.069-5.177 3.23-8.382.187-3.302.187-13.192 0-16.494zM35.594 31.79a6.75 6.75 0 01-3.801 3.802c-2.633 1.044-8.88.803-11.789.803-2.909 0-9.164.232-11.788-.803a6.75 6.75 0 01-3.801-3.802C3.371 29.158 3.612 22.91 3.612 20s-.232-9.167.803-11.79a6.75 6.75 0 013.801-3.803c2.633-1.044 8.88-.803 11.788-.803 2.91 0 9.165-.232 11.789.803a6.75 6.75 0 013.801 3.802c1.044 2.633.803 8.881.803 11.791s.241 9.167-.803 11.79z" fill="#000"/></svg>