<svg width="25" height="25" fill="none" xmlns="http://www.w3.org/2000/svg"><path d="M23.151 0H1.85A1.833 1.833 0 00.552.513 1.812 1.812 0 000 1.788v21.424a1.803 1.803 0 00.552 1.275A1.825 1.825 0 001.849 25H23.15a1.834 1.834 0 001.297-.513A1.813 1.813 0 0025 23.212V1.788a1.803 1.803 0 00-.552-1.275A1.824 1.824 0 0023.151 0zM7.583 20.925H3.81V9.675h3.773v11.25zM5.697 8.1c-.52 0-1.02-.205-1.388-.571a1.944 1.944 0 010-2.758 1.968 1.968 0 011.388-.57 1.986 1.986 0 011.537.485 1.963 1.963 0 01.66 1.464 1.952 1.952 0 01-.66 1.464 1.978 1.978 0 01-1.537.486zM21.19 20.925h-3.773v-6.038c0-1.512-.54-2.5-1.912-2.5a2.083 2.083 0 00-1.183.38c-.346.243-.61.586-.753.983a2.486 2.486 0 00-.126.912v6.25H9.671V9.662h3.772v1.588a3.761 3.761 0 011.442-1.408 3.79 3.79 0 011.966-.467c2.515 0 4.339 1.613 4.339 5.075v6.475z" fill="#555"/></svg>