<svg width="300" height="313" fill="none" xmlns="http://www.w3.org/2000/svg"><path d="M56.834 157.136c7.216 22.535 20.966 43.03 42.457 53.854 8.785 4.792 22.919 7.287 32.598 9.828 11.663 2.949 23.279 4.745 35.272 7.71.698.141.816 1.216.134 1.482-5.922 2.691-12.174 4.22-18.527 5.13-21.287 2.91-37.876-2.016-55.548-13.883-16.354-10.51-28.205-27.186-33.892-45.579-1.827-5.969-3.098-12.063-3.953-18.212-.11-.879 1.137-1.255 1.451-.33h.008zM271.551 157.638c-7.074 21.319-16.157 43.649-33.954 58.576-15.342 12.981-28.739 17.318-48.575 17.561-5.64.04-11.279-.204-17.162-1.286-.745-.118-1.004-1.176-.369-1.608 4.824-3.545 9.922-6.118 14.997-8.471 9.765-4.369 19.719-7.93 29.688-10.902 15.083-3.985 26.464-15.138 35.806-27.296 6.581-8.487 12.338-17.828 18.064-27.256a.832.832 0 011.505.682z" fill="#fff"/><path d="M59.783 157.301s16.676 69.321 104.563 69.282c81.494-.039 103.307-69.282 103.307-69.282H59.783z" stroke="#fff" stroke-width="13" stroke-linecap="round" stroke-linejoin="round"/><path d="M112.209 229.924s-3.318 10.581 8.66 12.009c11.977 1.427 84.678 0 84.678 0s10.55-2.346 8.558-12.009" fill="#fff"/><path d="M112.209 229.924s-3.318 10.581 8.66 12.009c11.977 1.427 84.678 0 84.678 0s10.55-2.346 8.558-12.009" stroke="#fff" stroke-miterlimit="10" stroke-linecap="round"/><path d="M5.008 206.737c65.22-60.128 120.626-147.388 120.626-147.388s6.009-6.674 7.875-20.29c2.848-20.77 21.303-38.92 41.391-38.05 21.624.933 29.789 11.49 38.582 28.974 2.714 5.396 11.083 3.875 19.225 15.758 0 0-16.237-.361-24.7 2.714-.768.282-1.545.533-2.329.776-3.279 1.012-12.495 5.153-10.62 19.468 1.592 12.197 16.291 60.772-45.924 90.514-36.583 17.492-64.615 5.671-69.957 10.15-9.122 7.64-69.157 46.991-69.157 46.991s-16.361.855-5.004-9.617h-.008z" fill="#fff" stroke="#fff" stroke-miterlimit="10" stroke-linecap="round"/><path d="M98.864 150.766s40.3-6.353 63.486-32.041c16.691-18.487 3.804-37.445 3.804-37.445 17.154 40.583-67.29 69.494-67.29 69.494v-.008z" fill="#000"/><path d="M252.813 162.681s12.455-15.059 41.335-29.915c12.111-6.228.494-23.86-12.032-17.554-20.973 10.558-49.595 44.685-49.595 44.685l20.3 2.792-.008-.008zM64.484 302.567l13.28-30.6h.32l13.28 30.6h-6.72l-8.48-21.52 4.2-2.88-10.16 24.4h-5.72zm9.08-10.64h8.84l2.04 4.88h-12.68l1.8-4.88zm37.811-11.68a21.8 21.8 0 00-3.44-1.52c-1.146-.4-2.226-.6-3.24-.6-1.253 0-2.24.253-2.96.76-.72.507-1.08 1.267-1.08 2.28 0 .693.267 1.32.8 1.88.56.533 1.267 1.013 2.12 1.44a30.9 30.9 0 002.72 1.16c.854.32 1.694.707 2.52 1.16a8.689 8.689 0 012.28 1.64c.667.64 1.2 1.453 1.6 2.44.4.96.6 2.147.6 3.56 0 1.493-.386 2.88-1.16 4.16-.773 1.28-1.906 2.32-3.4 3.12-1.493.773-3.333 1.16-5.52 1.16-1.12 0-2.266-.107-3.44-.32a19.963 19.963 0 01-3.4-1.04c-1.12-.48-2.2-1.08-3.24-1.8l2.56-4.52c.694.507 1.44.96 2.24 1.36.827.373 1.654.667 2.48.88.827.213 1.587.32 2.28.32.694 0 1.387-.093 2.08-.28.72-.213 1.307-.56 1.76-1.04.48-.48.72-1.147.72-2 0-.587-.2-1.12-.6-1.6-.373-.48-.893-.92-1.56-1.32-.64-.4-1.346-.747-2.12-1.04a40.611 40.611 0 01-2.8-1.2c-.96-.453-1.866-1-2.72-1.64a8.24 8.24 0 01-2.04-2.44c-.506-.987-.76-2.187-.76-3.6 0-1.707.374-3.187 1.12-4.44.774-1.253 1.854-2.24 3.24-2.96 1.387-.747 2.987-1.16 4.8-1.24 2.374 0 4.294.28 5.76.84 1.494.56 2.827 1.227 4 2l-2.2 4.44zm4.281 22.32l13.28-30.6h.32l13.28 30.6h-6.72l-8.48-21.52 4.2-2.88-10.16 24.4h-5.72zm9.08-10.64h8.84l2.04 4.88h-12.68l1.8-4.88zm22.091-18.8h18.4v5.6h-12.6v6.68h10.92v5.6h-10.92v11.56h-5.8v-29.44zm32.905 0c1.84 0 3.48.24 4.92.72 1.44.453 2.64 1.12 3.6 2a8.212 8.212 0 012.24 3.12c.506 1.2.76 2.56.76 4.08 0 1.2-.187 2.4-.56 3.6a8.932 8.932 0 01-1.76 3.28c-.8.987-1.867 1.787-3.2 2.4-1.334.587-2.987.88-4.96.88h-4.16v9.36h-5.8v-29.44h8.92zm1 14.48c.88 0 1.613-.147 2.2-.44.586-.293 1.04-.667 1.36-1.12.346-.453.586-.92.72-1.4.16-.507.24-.973.24-1.4 0-.32-.054-.72-.16-1.2a4.409 4.409 0 00-.56-1.52c-.294-.507-.747-.933-1.36-1.28-.587-.347-1.387-.52-2.4-.52h-4.16v8.88h4.12zm5.44 3.6l7.28 11.36h-6.76l-7.44-11.2 6.92-.16zm8.742 11.36l13.28-30.6h.32l13.28 30.6h-6.72l-8.48-21.52 4.2-2.88-10.16 24.4h-5.72zm9.08-10.64h8.84l2.04 4.88h-12.68l1.8-4.88zm22.091 10.64v-30.64h.04l16.36 23.2-2.48-.56 16.32-22.64h.08v30.64h-5.8v-17.56l.36 3-9.96 14.16h-.08l-10.24-14.16 1-2.76v17.32h-5.6z" fill="#fff"/></svg>