<svg width="475" height="534" viewBox="0 0 475 534" fill="none" xmlns="http://www.w3.org/2000/svg">
<path d="M258.547 395.363C367.724 395.363 456.229 306.858 456.229 197.682C456.229 88.5051 367.724 0 258.547 0C149.371 0 60.8657 88.5051 60.8657 197.682C60.8657 306.858 149.371 395.363 258.547 395.363Z" fill="#FED853"/>
<path d="M89.776 290.205C101.25 326.037 123.114 358.626 157.287 375.838C171.256 383.458 193.73 387.424 209.121 391.465C227.667 396.155 246.138 399.011 265.208 403.725C266.318 403.95 266.505 405.659 265.42 406.083C256.003 410.36 246.063 412.793 235.961 414.239C202.112 418.866 175.733 411.034 147.634 392.164C121.63 375.451 102.784 348.936 93.7421 319.689C90.8361 310.198 88.8156 300.507 87.4562 290.729C87.2816 289.332 89.2646 288.733 89.7635 290.205H89.776Z" fill="black"/>
<path d="M431.199 291.003C440 286.5 405.507 360.41 377.207 384.144C352.812 404.785 331.51 411.682 299.968 412.069C291.001 412.131 282.033 411.745 272.679 410.024C271.495 409.837 271.083 408.153 272.093 407.467C279.763 401.83 287.87 397.739 295.94 393.997C311.467 387.05 334 382.5 343.146 376.661C367.13 370.325 385.227 352.59 400.081 333.258C410.545 319.764 419.7 304.909 428.804 289.918C429.178 289.294 430.002 289.082 430.625 289.469C431.161 289.793 431.373 290.429 431.199 291.003Z" fill="black"/>
<path d="M94.4658 290.467C94.4658 290.467 120.981 400.695 260.73 400.632C390.315 400.57 426.5 290.467 426.5 290.467H94.4658Z" stroke="black" stroke-width="13" stroke-linecap="round" stroke-linejoin="round"/>
<path d="M177.828 405.945C177.828 405.945 172.553 422.77 191.597 425.04C210.642 427.31 326.245 425.04 326.245 425.04C326.245 425.04 343.02 421.311 339.852 405.945" fill="black"/>
<path d="M177.828 405.945C177.828 405.945 172.553 422.77 191.597 425.04C210.642 427.31 326.245 425.04 326.245 425.04C326.245 425.04 343.02 421.311 339.852 405.945" stroke="black" stroke-miterlimit="10" stroke-linecap="round"/>
<path d="M7.36767 369.076C111.073 273.465 199.175 134.714 199.175 134.714C199.175 134.714 208.729 124.1 211.697 102.449C216.224 69.423 245.571 40.5627 277.512 41.9471C311.897 43.4313 324.881 60.2187 338.862 88.0188C343.177 96.5996 356.485 94.18 369.431 113.075C369.431 113.075 343.614 112.501 330.156 117.39C328.934 117.839 327.699 118.239 326.452 118.625C321.239 120.234 306.584 126.819 309.565 149.581C312.097 168.975 335.469 246.214 236.541 293.508C178.372 321.321 133.797 302.525 125.303 309.647C110.798 321.795 15.3373 384.367 15.3373 384.367C15.3373 384.367 -10.6794 385.726 7.38015 369.076H7.36767Z" fill="black" stroke="black" stroke-miterlimit="10" stroke-linecap="round"/>
<path d="M156.608 280.076C156.608 280.076 220.689 269.973 257.557 229.127C284.097 199.731 263.605 169.586 263.605 169.586C290.882 234.116 156.608 280.088 156.608 280.088V280.076Z" fill="#FED853"/>
<path d="M401.229 294.988C401.229 294.988 421.013 272.16 466.884 249.642C486.12 240.202 467.669 213.474 447.773 223.033C414.46 239.037 369 290.767 369 290.767L401.242 295L401.229 294.988Z" fill="black"/>
<path d="M111.72 519L131.64 473.1H132.12L152.04 519H141.96L129.24 486.72L135.54 482.4L120.3 519H111.72ZM125.34 503.04H138.6L141.66 510.36H122.64L125.34 503.04ZM182.057 485.52C180.377 484.6 178.657 483.84 176.897 483.24C175.177 482.64 173.557 482.34 172.037 482.34C170.157 482.34 168.677 482.72 167.597 483.48C166.517 484.24 165.977 485.38 165.977 486.9C165.977 487.94 166.377 488.88 167.177 489.72C168.017 490.52 169.077 491.24 170.357 491.88C171.677 492.52 173.037 493.1 174.437 493.62C175.717 494.1 176.977 494.68 178.217 495.36C179.497 496 180.637 496.82 181.637 497.82C182.637 498.78 183.437 500 184.037 501.48C184.637 502.92 184.937 504.7 184.937 506.82C184.937 509.06 184.357 511.14 183.197 513.06C182.037 514.98 180.337 516.54 178.097 517.74C175.857 518.9 173.097 519.48 169.817 519.48C168.137 519.48 166.417 519.32 164.657 519C162.937 518.64 161.237 518.12 159.557 517.44C157.877 516.72 156.257 515.82 154.697 514.74L158.537 507.96C159.577 508.72 160.697 509.4 161.897 510C163.137 510.56 164.377 511 165.617 511.32C166.857 511.64 167.997 511.8 169.037 511.8C170.077 511.8 171.117 511.66 172.157 511.38C173.237 511.06 174.117 510.54 174.797 509.82C175.517 509.1 175.877 508.1 175.877 506.82C175.877 505.94 175.577 505.14 174.977 504.42C174.417 503.7 173.637 503.04 172.637 502.44C171.677 501.84 170.617 501.32 169.457 500.88C168.097 500.36 166.697 499.76 165.257 499.08C163.817 498.4 162.457 497.58 161.177 496.62C159.937 495.62 158.917 494.4 158.117 492.96C157.357 491.48 156.977 489.68 156.977 487.56C156.977 485 157.537 482.78 158.657 480.9C159.817 479.02 161.437 477.54 163.517 476.46C165.597 475.34 167.997 474.72 170.717 474.6C174.277 474.6 177.157 475.02 179.357 475.86C181.597 476.7 183.597 477.7 185.357 478.86L182.057 485.52ZM188.477 519L208.397 473.1H208.877L228.797 519H218.717L205.997 486.72L212.297 482.4L197.057 519H188.477ZM202.097 503.04H215.357L218.417 510.36H199.397L202.097 503.04ZM235.235 474.84H262.835V483.24H243.935V493.26H260.315V501.66H243.935V519H235.235V474.84ZM284.591 474.84C287.351 474.84 289.811 475.2 291.971 475.92C294.131 476.6 295.931 477.6 297.371 478.92C298.851 480.2 299.971 481.76 300.731 483.6C301.491 485.4 301.871 487.44 301.871 489.72C301.871 491.52 301.591 493.32 301.031 495.12C300.511 496.92 299.631 498.56 298.391 500.04C297.191 501.52 295.591 502.72 293.591 503.64C291.591 504.52 289.111 504.96 286.151 504.96H279.911V519H271.211V474.84H284.591ZM286.091 496.56C287.411 496.56 288.511 496.34 289.391 495.9C290.271 495.46 290.951 494.9 291.431 494.22C291.951 493.54 292.311 492.84 292.511 492.12C292.751 491.36 292.871 490.66 292.871 490.02C292.871 489.54 292.791 488.94 292.631 488.22C292.511 487.46 292.231 486.7 291.791 485.94C291.351 485.18 290.671 484.54 289.751 484.02C288.871 483.5 287.671 483.24 286.151 483.24H279.911V496.56H286.091ZM294.251 501.96L305.171 519H295.031L283.871 502.2L294.251 501.96ZM307.364 519L327.284 473.1H327.764L347.684 519H337.604L324.884 486.72L331.184 482.4L315.944 519H307.364ZM320.984 503.04H334.244L337.304 510.36H318.284L320.984 503.04ZM354.121 519V473.04H354.181L378.721 507.84L375.001 507L399.481 473.04H399.601V519H390.901V492.66L391.441 497.16L376.501 518.4H376.381L361.021 497.16L362.521 493.02V519H354.121Z" fill="black"/>
</svg>
