<svg width="476" height="535" viewBox="0 0 476 535" fill="none" xmlns="http://www.w3.org/2000/svg">
<path d="M258.547 395.363C367.724 395.363 456.229 306.858 456.229 197.682C456.229 88.5051 367.724 0 258.547 0C149.371 0 60.8657 88.5051 60.8657 197.682C60.8657 306.858 149.371 395.363 258.547 395.363Z" fill="#F8B000"/>
<path d="M89.776 291.205C101.25 327.037 123.114 359.626 157.287 376.838C171.256 384.458 193.73 388.424 209.121 392.465C227.667 397.155 246.138 400.011 265.208 404.725C266.318 404.95 266.505 406.659 265.42 407.083C256.003 411.36 246.063 413.793 235.961 415.239C202.112 419.866 175.733 412.034 147.634 393.164C121.63 376.451 102.784 349.936 93.7421 320.689C90.8361 311.198 88.8156 301.507 87.4562 291.729C87.2816 290.332 89.2646 289.733 89.7635 291.205H89.776Z" fill="black"/>
<path d="M431.199 292.003C419.949 325.902 405.507 361.41 377.207 385.144C352.812 405.785 331.51 412.682 299.968 413.069C291.001 413.131 282.033 412.745 272.679 411.024C271.495 410.837 271.083 409.153 272.093 408.467C279.763 402.83 287.87 398.739 295.94 394.997C311.467 388.05 327.294 382.388 343.146 377.661C367.13 371.325 385.227 353.59 400.081 334.258C410.545 320.764 419.7 305.909 428.804 290.918C429.178 290.294 430.002 290.082 430.625 290.469C431.161 290.793 431.373 291.429 431.199 292.003Z" fill="black"/>
<path d="M94.4658 291.467C94.4658 291.467 120.981 401.695 260.73 401.632C390.315 401.57 425 291.467 425 291.467H94.4658Z" stroke="black" stroke-width="13" stroke-linecap="round" stroke-linejoin="round"/>
<path d="M177.828 406.945C177.828 406.945 172.552 423.77 191.597 426.04C210.642 428.31 326.245 426.04 326.245 426.04C326.245 426.04 343.02 422.311 339.852 406.945" fill="black"/>
<path d="M177.828 406.945C177.828 406.945 172.552 423.77 191.597 426.04C210.642 428.31 326.245 426.04 326.245 426.04C326.245 426.04 343.02 422.311 339.852 406.945" stroke="black" stroke-miterlimit="10" stroke-linecap="round"/>
<path d="M7.36767 370.076C111.073 274.465 199.175 135.714 199.175 135.714C199.175 135.714 208.729 125.1 211.697 103.449C216.224 70.423 245.571 41.5627 277.512 42.9471C311.897 44.4313 324.881 61.2187 338.862 89.0188C343.177 97.5996 356.485 95.18 369.431 114.075C369.431 114.075 343.614 113.501 330.156 118.39C328.934 118.839 327.699 119.239 326.452 119.625C321.239 121.234 306.584 127.819 309.565 150.581C312.097 169.975 335.469 247.214 236.541 294.508C178.372 322.321 133.797 303.525 125.303 310.647C110.798 322.795 15.3373 385.367 15.3373 385.367C15.3373 385.367 -10.6794 386.726 7.38015 370.076H7.36767Z" fill="black" stroke="black" stroke-miterlimit="10" stroke-linecap="round"/>
<path d="M156.608 281.076C156.608 281.076 220.69 270.973 257.557 230.127C284.098 200.731 263.606 170.586 263.606 170.586C290.882 235.116 156.608 281.088 156.608 281.088V281.076Z" fill="#F8B000"/>
<path d="M401.402 300.023C401.402 300.023 421.207 276.076 467.129 252.454C486.386 242.552 467.915 214.515 447.997 224.542C414.647 241.329 369.137 295.595 369.137 295.595L401.414 300.035L401.402 300.023Z" fill="black"/>
<path d="M111.72 520L131.64 474.1H132.12L152.04 520H141.96L129.24 487.72L135.54 483.4L120.3 520H111.72ZM125.34 504.04H138.6L141.66 511.36H122.64L125.34 504.04ZM182.057 486.52C180.377 485.6 178.657 484.84 176.897 484.24C175.177 483.64 173.557 483.34 172.037 483.34C170.157 483.34 168.677 483.72 167.597 484.48C166.517 485.24 165.977 486.38 165.977 487.9C165.977 488.94 166.377 489.88 167.177 490.72C168.017 491.52 169.077 492.24 170.357 492.88C171.677 493.52 173.037 494.1 174.437 494.62C175.717 495.1 176.977 495.68 178.217 496.36C179.497 497 180.637 497.82 181.637 498.82C182.637 499.78 183.437 501 184.037 502.48C184.637 503.92 184.937 505.7 184.937 507.82C184.937 510.06 184.357 512.14 183.197 514.06C182.037 515.98 180.337 517.54 178.097 518.74C175.857 519.9 173.097 520.48 169.817 520.48C168.137 520.48 166.417 520.32 164.657 520C162.937 519.64 161.237 519.12 159.557 518.44C157.877 517.72 156.257 516.82 154.697 515.74L158.537 508.96C159.577 509.72 160.697 510.4 161.897 511C163.137 511.56 164.377 512 165.617 512.32C166.857 512.64 167.997 512.8 169.037 512.8C170.077 512.8 171.117 512.66 172.157 512.38C173.237 512.06 174.117 511.54 174.797 510.82C175.517 510.1 175.877 509.1 175.877 507.82C175.877 506.94 175.577 506.14 174.977 505.42C174.417 504.7 173.637 504.04 172.637 503.44C171.677 502.84 170.617 502.32 169.457 501.88C168.097 501.36 166.697 500.76 165.257 500.08C163.817 499.4 162.457 498.58 161.177 497.62C159.937 496.62 158.917 495.4 158.117 493.96C157.357 492.48 156.977 490.68 156.977 488.56C156.977 486 157.537 483.78 158.657 481.9C159.817 480.02 161.437 478.54 163.517 477.46C165.597 476.34 167.997 475.72 170.717 475.6C174.277 475.6 177.157 476.02 179.357 476.86C181.597 477.7 183.597 478.7 185.357 479.86L182.057 486.52ZM188.478 520L208.398 474.1H208.878L228.798 520H218.718L205.998 487.72L212.298 483.4L197.058 520H188.478ZM202.098 504.04H215.358L218.418 511.36H199.398L202.098 504.04ZM235.235 475.84H262.835V484.24H243.935V494.26H260.315V502.66H243.935V520H235.235V475.84ZM284.592 475.84C287.352 475.84 289.812 476.2 291.972 476.92C294.132 477.6 295.932 478.6 297.372 479.92C298.852 481.2 299.972 482.76 300.732 484.6C301.492 486.4 301.872 488.44 301.872 490.72C301.872 492.52 301.592 494.32 301.032 496.12C300.512 497.92 299.632 499.56 298.392 501.04C297.192 502.52 295.592 503.72 293.592 504.64C291.592 505.52 289.112 505.96 286.152 505.96H279.912V520H271.212V475.84H284.592ZM286.092 497.56C287.412 497.56 288.512 497.34 289.392 496.9C290.272 496.46 290.952 495.9 291.432 495.22C291.952 494.54 292.312 493.84 292.512 493.12C292.752 492.36 292.872 491.66 292.872 491.02C292.872 490.54 292.792 489.94 292.632 489.22C292.512 488.46 292.232 487.7 291.792 486.94C291.352 486.18 290.672 485.54 289.752 485.02C288.872 484.5 287.672 484.24 286.152 484.24H279.912V497.56H286.092ZM294.252 502.96L305.172 520H295.032L283.872 503.2L294.252 502.96ZM307.365 520L327.285 474.1H327.765L347.685 520H337.605L324.885 487.72L331.185 483.4L315.945 520H307.365ZM320.985 504.04H334.245L337.305 511.36H318.285L320.985 504.04ZM354.122 520V474.04H354.182L378.722 508.84L375.002 508L399.482 474.04H399.602V520H390.902V493.66L391.442 498.16L376.502 519.4H376.382L361.022 498.16L362.522 494.02V520H354.122Z" fill="black"/>
</svg>
