<svg width="300" height="339" viewBox="0 0 300 339" fill="none" xmlns="http://www.w3.org/2000/svg">
<path d="M162.973 248.64C231.633 248.64 287.293 192.98 287.293 124.32C287.293 55.66 231.633 0 162.973 0C94.3129 0 38.6528 55.66 38.6528 124.32C38.6528 192.98 94.3129 248.64 162.973 248.64Z" fill="#FED853"/>
<path d="M56.8344 183.136C64.0504 205.671 77.8002 226.166 99.2915 236.99C108.076 241.782 122.21 244.277 131.889 246.818C143.553 249.767 155.169 251.563 167.162 254.528C167.86 254.669 167.977 255.744 167.295 256.01C161.373 258.701 155.122 260.23 148.769 261.14C127.481 264.05 110.892 259.124 93.2206 247.257C76.8668 236.747 65.0152 220.071 59.3286 201.678C57.5011 195.709 56.2304 189.615 55.3755 183.466C55.2657 182.587 56.5128 182.211 56.8265 183.136H56.8344Z" fill="black"/>
<path d="M271.552 183.638C264.477 204.957 255.394 227.287 237.597 242.214C222.255 255.195 208.858 259.532 189.022 259.775C183.383 259.815 177.743 259.571 171.86 258.489C171.115 258.371 170.857 257.313 171.492 256.881C176.316 253.336 181.414 250.763 186.489 248.41C196.254 244.041 206.207 240.48 216.177 237.508C231.26 233.523 242.641 222.37 251.982 210.212C258.563 201.725 264.32 192.384 270.046 182.956C270.281 182.564 270.799 182.43 271.191 182.673C271.528 182.877 271.662 183.277 271.552 183.638Z" fill="black"/>
<path d="M59.7837 183.301C59.7837 183.301 76.4591 252.622 164.346 252.583C245.84 252.544 267.654 183.301 267.654 183.301H59.7837Z" stroke="black" stroke-width="13" stroke-linecap="round" stroke-linejoin="round"/>
<path d="M112.21 255.924C112.21 255.924 108.892 266.505 120.869 267.933C132.846 269.36 205.548 267.933 205.548 267.933C205.548 267.933 216.098 265.587 214.105 255.924" fill="black"/>
<path d="M112.21 255.924C112.21 255.924 108.892 266.505 120.869 267.933C132.846 269.36 205.548 267.933 205.548 267.933C205.548 267.933 216.098 265.587 214.105 255.924" stroke="black" stroke-miterlimit="10" stroke-linecap="round"/>
<path d="M5.00848 232.737C70.2276 172.609 125.634 85.3494 125.634 85.3494C125.634 85.3494 131.643 78.6745 133.509 65.0581C136.357 44.2884 154.812 26.1385 174.9 27.0091C196.524 27.9425 204.689 38.4999 213.482 55.9831C216.196 61.3795 224.565 59.8579 232.707 71.7408C232.707 71.7408 216.47 71.38 208.007 74.4547C207.239 74.7371 206.462 74.9881 205.678 75.2312C202.399 76.243 193.183 80.3844 195.058 94.6989C196.65 106.896 211.349 155.471 149.134 185.213C112.551 202.705 84.5185 190.884 79.177 195.363C70.055 203.003 10.0205 242.354 10.0205 242.354C10.0205 242.354 -6.34113 243.209 5.01632 232.737H5.00848Z" fill="black" stroke="black" stroke-miterlimit="10" stroke-linecap="round"/>
<path d="M98.8643 176.766C98.8643 176.766 139.164 170.413 162.35 144.725C179.041 126.238 166.154 107.28 166.154 107.28C183.308 147.863 98.8643 176.774 98.8643 176.774V176.766Z" fill="#FED853"/>
<path d="M252.813 188.681C252.813 188.681 265.268 173.622 294.148 158.766C306.259 152.538 294.642 134.906 282.116 141.212C261.143 151.77 232.521 185.897 232.521 185.897L252.821 188.689L252.813 188.681Z" fill="black"/>
<path d="M64.4839 328.567L77.7639 297.967H78.0839L91.3639 328.567H84.6439L76.1639 307.047L80.3639 304.167L70.2039 328.567H64.4839ZM73.5639 317.927H82.4039L84.4439 322.807H71.7639L73.5639 317.927ZM111.375 306.247C110.255 305.634 109.109 305.127 107.935 304.727C106.789 304.327 105.709 304.127 104.695 304.127C103.442 304.127 102.455 304.38 101.735 304.887C101.015 305.394 100.655 306.154 100.655 307.167C100.655 307.86 100.922 308.487 101.455 309.047C102.015 309.58 102.722 310.06 103.575 310.487C104.455 310.914 105.362 311.3 106.295 311.647C107.149 311.967 107.989 312.354 108.815 312.807C109.669 313.234 110.429 313.78 111.095 314.447C111.762 315.087 112.295 315.9 112.695 316.887C113.095 317.847 113.295 319.034 113.295 320.447C113.295 321.94 112.909 323.327 112.135 324.607C111.362 325.887 110.229 326.927 108.735 327.727C107.242 328.5 105.402 328.887 103.215 328.887C102.095 328.887 100.949 328.78 99.7755 328.567C98.6288 328.327 97.4955 327.98 96.3755 327.527C95.2555 327.047 94.1755 326.447 93.1355 325.727L95.6955 321.207C96.3888 321.714 97.1355 322.167 97.9355 322.567C98.7621 322.94 99.5888 323.234 100.415 323.447C101.242 323.66 102.002 323.767 102.695 323.767C103.389 323.767 104.082 323.674 104.775 323.487C105.495 323.274 106.082 322.927 106.535 322.447C107.015 321.967 107.255 321.3 107.255 320.447C107.255 319.86 107.055 319.327 106.655 318.847C106.282 318.367 105.762 317.927 105.095 317.527C104.455 317.127 103.749 316.78 102.975 316.487C102.069 316.14 101.135 315.74 100.175 315.287C99.2155 314.834 98.3088 314.287 97.4555 313.647C96.6288 312.98 95.9488 312.167 95.4155 311.207C94.9088 310.22 94.6555 309.02 94.6555 307.607C94.6555 305.9 95.0288 304.42 95.7755 303.167C96.5488 301.914 97.6288 300.927 99.0155 300.207C100.402 299.46 102.002 299.047 103.815 298.967C106.189 298.967 108.109 299.247 109.575 299.807C111.069 300.367 112.402 301.034 113.575 301.807L111.375 306.247ZM115.656 328.567L128.936 297.967H129.256L142.536 328.567H135.816L127.336 307.047L131.536 304.167L121.376 328.567H115.656ZM124.736 317.927H133.576L135.616 322.807H122.936L124.736 317.927ZM146.827 299.127H165.227V304.727H152.627V311.407H163.547V317.007H152.627V328.567H146.827V299.127ZM179.732 299.127C181.572 299.127 183.212 299.367 184.652 299.847C186.092 300.3 187.292 300.967 188.252 301.847C189.238 302.7 189.985 303.74 190.492 304.967C190.998 306.167 191.252 307.527 191.252 309.047C191.252 310.247 191.065 311.447 190.692 312.647C190.345 313.847 189.758 314.94 188.932 315.927C188.132 316.914 187.065 317.714 185.732 318.327C184.398 318.914 182.745 319.207 180.772 319.207H176.612V328.567H170.812V299.127H179.732ZM180.732 313.607C181.612 313.607 182.345 313.46 182.932 313.167C183.518 312.874 183.972 312.5 184.292 312.047C184.638 311.594 184.878 311.127 185.012 310.647C185.172 310.14 185.252 309.674 185.252 309.247C185.252 308.927 185.198 308.527 185.092 308.047C185.012 307.54 184.825 307.034 184.532 306.527C184.238 306.02 183.785 305.594 183.172 305.247C182.585 304.9 181.785 304.727 180.772 304.727H176.612V313.607H180.732ZM186.172 317.207L193.452 328.567H186.692L179.252 317.367L186.172 317.207ZM194.914 328.567L208.194 297.967H208.514L221.794 328.567H215.074L206.594 307.047L210.794 304.167L200.634 328.567H194.914ZM203.994 317.927H212.834L214.874 322.807H202.194L203.994 317.927ZM226.085 328.567V297.927H226.125L242.485 321.127L240.005 320.567L256.325 297.927H256.405V328.567H250.605V311.007L250.965 314.007L241.005 328.167H240.925L230.685 314.007L231.685 311.247V328.567H226.085Z" fill="black"/>
</svg>
