<svg width="506" height="334" fill="none" xmlns="http://www.w3.org/2000/svg"><g filter="url(#a)"><path d="M462.138 83.843c-49.476 3.695-39.902 98.488-138.168 137.513-98.267 39.026-101.906 39.013 40.271 33.515 142.177-5.499 147.374-174.723 97.897-171.028z" fill="#F7B97D"/><path d="M480.195 134.271c-1.912 1.161-.486-15.359-4.545-27.692-4.059-12.334 7.271 1.455 8.285 9.278 1.013 7.823-1.829 17.253-3.74 18.414z" fill="#fff"/><path d="M369.079 117.961c-21.162 11.24 3.236 36.166-32.058 67.481-35.294 31.316-36.911 32.062 24.988 1.214 61.899-30.847 28.232-79.935 7.07-68.695z" fill="#F7B97D"/><path d="M390.794 148.866c-1.391.726-.709-8.214-3.998-14.612s5.424.388 6.353 4.531c.93 4.142-.964 9.355-2.355 10.081z" fill="#fff"/><path d="M348.707 270.138c47.793-7.638 52.47-22.994 73.744-11.968 21.275 11.025.015 66.623-60.543 33.219-25.035-13.809-39.794-18.527-45.119-19.851-3.058-.76-3.005-.4 0 0 4.42.589 15.228 1.267 31.918-1.4z" fill="#F7B97D"/><path d="M425.91 273.835c-1.027.63-1.122-5.279-4.114-9.082-2.993-3.804 4.227-.358 5.235 2.24 1.008 2.598-.095 6.212-1.121 6.842z" fill="#fff"/></g><g filter="url(#b)"><path d="M43.427 83.843c49.477 3.695 39.902 98.488 138.169 137.513 98.266 39.026 101.906 39.013-40.271 33.515C-.853 249.372-6.05 80.148 43.427 83.843z" fill="#F7B97D"/><path d="M24.371 134.271c1.912 1.161.486-15.359 4.545-27.692 4.059-12.334-7.271 1.455-8.285 9.278-1.014 7.823 1.829 17.253 3.74 18.414z" fill="#fff"/><path d="M135.486 117.961c21.162 11.24-3.236 36.166 32.058 67.481 35.294 31.316 36.911 32.062-24.988 1.214-61.899-30.847-28.232-79.935-7.07-68.695z" fill="#F7B97D"/><path d="M113.771 148.866c1.392.726.709-8.214 3.998-14.612 3.29-6.398-5.424.388-6.353 4.531-.929 4.142.964 9.355 2.355 10.081z" fill="#fff"/><path d="M82.115 258.17c21.274-11.026 34.885 6.83 73.744 11.968s47.357-12.153-13.201 21.251c-60.557 33.404-81.818-22.194-60.543-33.219z" fill="#F7B97D"/><path d="M78.656 273.835c1.027.63 1.121-5.279 4.114-9.082 2.993-3.804-4.227-.358-5.235 2.24-1.008 2.598.095 6.212 1.121 6.842z" fill="#fff"/></g><g filter="url(#c)"><rect width="25" height="25" rx="12.5" transform="matrix(-1 0 0 1 485 35)" fill="#F7B97D"/></g><g filter="url(#d)"><rect width="46" height="48" rx="23" transform="matrix(-1 0 0 1 460 0)" fill="#F7B97D"/></g><rect width="12" height="12" rx="6" transform="matrix(-1 0 0 1 453 9)" fill="#fff"/><rect width="5" height="5" rx="2.5" transform="matrix(-1 0 0 1 482 42)" fill="#fff"/><g filter="url(#e)"><rect x="21" y="35" width="25" height="25" rx="12.5" fill="#F7B97D"/></g><g filter="url(#f)"><rect x="46" width="46" height="48" rx="23" fill="#F7B97D"/></g><rect x="53" y="7" width="12" height="12" rx="6" fill="#fff"/><rect x="25" y="40" width="5" height="5" rx="2.5" fill="#fff"/><defs><filter id="a" x="249.413" y="83.783" width="245.066" height="226.158" filterUnits="userSpaceOnUse" color-interpolation-filters="sRGB"><feFlood flood-opacity="0" result="BackgroundImageFix"/><feColorMatrix in="SourceAlpha" values="0 0 0 0 0 0 0 0 0 0 0 0 0 0 0 0 0 0 127 0" result="hardAlpha"/><feOffset dy="4"/><feGaussianBlur stdDeviation="2"/><feComposite in2="hardAlpha" operator="out"/><feColorMatrix values="0 0 0 0 0 0 0 0 0 0 0 0 0 0 0 0 0 0 0.25 0"/><feBlend in2="BackgroundImageFix" result="effect1_dropShadow_944_2754"/><feBlend in="SourceGraphic" in2="effect1_dropShadow_944_2754" result="shape"/></filter><filter id="b" x="11.086" y="83.783" width="245.066" height="226.158" filterUnits="userSpaceOnUse" color-interpolation-filters="sRGB"><feFlood flood-opacity="0" result="BackgroundImageFix"/><feColorMatrix in="SourceAlpha" values="0 0 0 0 0 0 0 0 0 0 0 0 0 0 0 0 0 0 127 0" result="hardAlpha"/><feOffset dy="4"/><feGaussianBlur stdDeviation="2"/><feComposite in2="hardAlpha" operator="out"/><feColorMatrix values="0 0 0 0 0 0 0 0 0 0 0 0 0 0 0 0 0 0 0.25 0"/><feBlend in2="BackgroundImageFix" result="effect1_dropShadow_944_2754"/><feBlend in="SourceGraphic" in2="effect1_dropShadow_944_2754" result="shape"/></filter><filter id="c" x="456" y="35" width="33" height="33" filterUnits="userSpaceOnUse" color-interpolation-filters="sRGB"><feFlood flood-opacity="0" result="BackgroundImageFix"/><feColorMatrix in="SourceAlpha" values="0 0 0 0 0 0 0 0 0 0 0 0 0 0 0 0 0 0 127 0" result="hardAlpha"/><feOffset dy="4"/><feGaussianBlur stdDeviation="2"/><feComposite in2="hardAlpha" operator="out"/><feColorMatrix values="0 0 0 0 0 0 0 0 0 0 0 0 0 0 0 0 0 0 0.25 0"/><feBlend in2="BackgroundImageFix" result="effect1_dropShadow_944_2754"/><feBlend in="SourceGraphic" in2="effect1_dropShadow_944_2754" result="shape"/></filter><filter id="d" x="410" y="0" width="54" height="56" filterUnits="userSpaceOnUse" color-interpolation-filters="sRGB"><feFlood flood-opacity="0" result="BackgroundImageFix"/><feColorMatrix in="SourceAlpha" values="0 0 0 0 0 0 0 0 0 0 0 0 0 0 0 0 0 0 127 0" result="hardAlpha"/><feOffset dy="4"/><feGaussianBlur stdDeviation="2"/><feComposite in2="hardAlpha" operator="out"/><feColorMatrix values="0 0 0 0 0 0 0 0 0 0 0 0 0 0 0 0 0 0 0.25 0"/><feBlend in2="BackgroundImageFix" result="effect1_dropShadow_944_2754"/><feBlend in="SourceGraphic" in2="effect1_dropShadow_944_2754" result="shape"/></filter><filter id="e" x="17" y="35" width="33" height="33" filterUnits="userSpaceOnUse" color-interpolation-filters="sRGB"><feFlood flood-opacity="0" result="BackgroundImageFix"/><feColorMatrix in="SourceAlpha" values="0 0 0 0 0 0 0 0 0 0 0 0 0 0 0 0 0 0 127 0" result="hardAlpha"/><feOffset dy="4"/><feGaussianBlur stdDeviation="2"/><feComposite in2="hardAlpha" operator="out"/><feColorMatrix values="0 0 0 0 0 0 0 0 0 0 0 0 0 0 0 0 0 0 0.25 0"/><feBlend in2="BackgroundImageFix" result="effect1_dropShadow_944_2754"/><feBlend in="SourceGraphic" in2="effect1_dropShadow_944_2754" result="shape"/></filter><filter id="f" x="42" y="0" width="54" height="56" filterUnits="userSpaceOnUse" color-interpolation-filters="sRGB"><feFlood flood-opacity="0" result="BackgroundImageFix"/><feColorMatrix in="SourceAlpha" values="0 0 0 0 0 0 0 0 0 0 0 0 0 0 0 0 0 0 127 0" result="hardAlpha"/><feOffset dy="4"/><feGaussianBlur stdDeviation="2"/><feComposite in2="hardAlpha" operator="out"/><feColorMatrix values="0 0 0 0 0 0 0 0 0 0 0 0 0 0 0 0 0 0 0.25 0"/><feBlend in2="BackgroundImageFix" result="effect1_dropShadow_944_2754"/><feBlend in="SourceGraphic" in2="effect1_dropShadow_944_2754" result="shape"/></filter></defs></svg>