<svg width="40" height="40" fill="none" xmlns="http://www.w3.org/2000/svg"><path d="M40 17.148v-6.982c-3.694 0-6.514-.873-8.333-2.57-1.868-1.935-2.914-4.387-2.959-6.932V.16L21.25 0v28.359c-.256 1.237-.934 2.375-1.944 3.26-1.01.886-2.302 1.475-3.703 1.69a7.763 7.763 0 01-4.128-.49c-1.287-.533-2.359-1.403-3.07-2.493a5.578 5.578 0 01-.905-3.598c.121-1.254.674-2.444 1.584-3.41.91-.966 2.133-1.662 3.503-1.994a7.805 7.805 0 014.163.139v-6.761c-.78-.113-1.57-.17-2.361-.172-2.846 0-5.628.747-7.994 2.146-2.366 1.4-4.21 3.388-5.3 5.715a11.382 11.382 0 00-.819 7.358c.556 2.47 1.926 4.74 3.938 6.521 2.013 1.781 4.577 2.994 7.368 3.485 2.79.492 5.684.24 8.313-.724 2.63-.964 4.877-2.597 6.458-4.69 1.58-2.095 2.425-4.557 2.425-7.076a11.53 11.53 0 00-.111-1.561V14.456c3.391 1.875 7.337 2.812 11.333 2.692z" fill="#000"/></svg>