<svg width="1536" height="1264" fill="none" xmlns="http://www.w3.org/2000/svg"><g opacity=".51" filter="url(#a)"><g opacity=".69"><path d="M1195.31 1006.18c-166.47 47.85-385.046 20.07-488.193-62.041-103.147-82.111-51.808-187.461 114.669-235.307 166.476-47.846 385.044-20.069 488.194 62.042 103.15 82.111 51.81 187.461-114.67 235.306z" fill="#B7410E"/><path d="M1217.05 1046.44c-118.91 34.17-275.123 14.26-348.91-44.48-73.788-58.739-37.208-134.061 81.704-168.236 118.916-34.176 275.126-14.263 348.916 44.476 73.78 58.739 37.2 134.06-81.71 168.24z" fill="#FED853"/></g><ellipse opacity=".6" cx="247.293" cy="203.19" rx="247.293" ry="203.19" transform="matrix(.94459 -.32826 .83524 .54988 -610.253 234.353)" fill="#B7410E"/><ellipse opacity=".6" cx="181.586" cy="135.153" rx="181.586" ry="135.153" transform="matrix(.94459 -.32826 .83524 .54988 518.715 421.024)" fill="#B7410E"/><ellipse opacity=".69" cx="176.638" cy="145.135" rx="176.638" ry="145.135" transform="matrix(.94459 -.32826 .83524 .54988 964.457 214.181)" fill="#FED853"/></g><defs><filter id="a" x="-1161" y="-73.209" width="3592.86" height="1336.36" filterUnits="userSpaceOnUse" color-interpolation-filters="sRGB"><feFlood flood-opacity="0" result="BackgroundImageFix"/><feBlend in="SourceGraphic" in2="BackgroundImageFix" result="shape"/><feGaussianBlur stdDeviation="100" result="effect1_foregroundBlur_362_8721"/></filter></defs></svg>