<svg width="1536" height="1184" fill="none" xmlns="http://www.w3.org/2000/svg"><g opacity=".51" filter="url(#a)"><ellipse opacity=".65" cx="-134.378" cy="672.027" rx="362.622" ry="168.206" fill="#B7410E"/><ellipse opacity=".69" cx="38.255" cy="636.201" rx="259.407" ry="120.147" fill="#FED853"/><g opacity=".69"><path d="M1659.31 945.181c-166.47 47.846-385.05 20.068-488.19-62.042-103.15-82.111-51.81-187.461 114.67-235.307 166.47-47.846 385.04-20.069 488.19 62.042 103.15 82.111 51.81 187.461-114.67 235.307z" fill="#B7410E"/><path d="M1681.05 985.437c-118.91 34.173-275.12 14.262-348.91-44.477-73.79-58.739-37.21-134.061 81.7-168.236 118.92-34.176 275.13-14.263 348.92 44.476 73.78 58.739 37.2 134.061-81.71 168.237z" fill="#FED853"/></g><ellipse opacity=".6" cx="247.293" cy="203.19" rx="247.293" ry="203.19" transform="matrix(.94459 -.32826 .83524 .54988 -146.253 173.353)" fill="#B7410E"/><ellipse opacity=".6" cx="181.586" cy="135.153" rx="181.586" ry="135.153" transform="matrix(.94459 -.32826 .83524 .54988 982.715 360.024)" fill="#B7410E"/><ellipse opacity=".69" cx="176.638" cy="145.135" rx="176.638" ry="145.135" transform="matrix(.94459 -.32826 .83524 .54988 1428.46 153.181)" fill="#FED853"/><path d="M743.5 555.5l-61.5 31" stroke="#000" stroke-width="7" stroke-linecap="round" stroke-dasharray="25 25"/></g><defs><filter id="a" x="-678.2" y="-115.409" width="3555.26" height="1298.76" filterUnits="userSpaceOnUse" color-interpolation-filters="sRGB"><feFlood flood-opacity="0" result="BackgroundImageFix"/><feBlend in="SourceGraphic" in2="BackgroundImageFix" result="shape"/><feGaussianBlur stdDeviation="90.6" result="effect1_foregroundBlur_356_2311"/></filter></defs></svg>