<svg width="393" height="978" fill="none" xmlns="http://www.w3.org/2000/svg"><g opacity=".51" filter="url(#a)"><ellipse opacity=".65" cx="-113.536" cy="737" rx="157.464" ry="156" fill="#B7410E"/><ellipse opacity=".69" cx="71.51" cy="627.5" rx="76.726" ry="111.5" fill="#FED853"/><g opacity=".69"><path d="M214.84 792.171c-20.479 19.845-47.368 8.324-60.057-25.735-12.689-34.058-6.373-77.756 14.106-97.602 20.48-19.846 47.369-8.324 60.058 25.734 12.689 34.059 6.373 77.757-14.107 97.603z" fill="#B7410E"/><path d="M217.515 808.868c-14.629 14.176-33.846 5.916-42.923-18.448-9.077-24.364-4.577-55.607 10.051-69.783 14.628-14.175 33.846-5.916 42.923 18.449 9.077 24.364 4.577 55.607-10.051 69.782z" fill="#FED853"/></g><ellipse opacity=".6" cx="74.471" cy="126.963" rx="74.471" ry="126.963" transform="matrix(-.88016 .47467 -.04063 -.99917 407.246 359.082)" fill="#B7410E"/><ellipse opacity=".69" cx="28.268" cy="90.688" rx="28.268" ry="90.688" transform="matrix(-.88016 .47467 -.04063 -.99917 318.911 397.461)" fill="#FED853"/><ellipse opacity=".6" cx="80.582" cy="105.794" rx="80.582" ry="105.794" transform="matrix(.35352 -.93542 .19564 .98068 -5.568 239.756)" fill="#B7410E"/><ellipse opacity=".6" cx="59.171" cy="70.369" rx="59.171" ry="70.369" transform="matrix(.35352 -.93542 .19564 .98068 132.117 413.093)" fill="#B7410E"/><ellipse opacity=".69" cx="57.558" cy="75.567" rx="57.558" ry="75.567" transform="matrix(.35352 -.93542 .19564 .98068 186.478 221.024)" fill="#FED853"/><ellipse opacity=".69" cx="57.558" cy="75.567" rx="57.558" ry="75.567" transform="matrix(.35352 -.93542 .19564 .98068 274.703 667.284)" fill="#FED853"/></g><defs><filter id="a" x="-406.7" y=".149" width="944.694" height="1028.55" filterUnits="userSpaceOnUse" color-interpolation-filters="sRGB"><feFlood flood-opacity="0" result="BackgroundImageFix"/><feBlend in="SourceGraphic" in2="BackgroundImageFix" result="shape"/><feGaussianBlur stdDeviation="67.85" result="effect1_foregroundBlur_371_6165"/></filter></defs></svg>